<svg xmlns="http://www.w3.org/2000/svg" width="1200" height="524" viewBox="0 0 1200 524" fill="none" role="img"><style>
.serif{font-family:'Fraunces','Iowan Old Style','Palatino Linotype',Georgia,'Times New Roman',serif} .sans{font-family:'Inter','Segoe UI',-apple-system,BlinkMacSystemFont,'Helvetica Neue',Arial,sans-serif} .mono{font-family:'JetBrains Mono','SFMono-Regular',ui-monospace,Menlo,Consolas,'Liberation Mono',monospace}
@media (prefers-reduced-motion: reduce){ *{animation:none!important} }

.up{animation:up .7s cubic-bezier(.2,.8,.2,1) both}@keyframes up{from{opacity:0;transform:translateX(-10px)}to{opacity:1;transform:none}}
.chip{animation:chip .6s cubic-bezier(.2,.8,.2,1) both}@keyframes chip{from{opacity:0;transform:translateY(8px) scale(.96)}to{opacity:1;transform:none}}
</style><defs><radialGradient id="sglow" cx="0%" cy="0%" r="55%"><stop offset="0" stop-color="#F5B759" stop-opacity="0.1"/><stop offset="1" stop-color="#F5B759" stop-opacity="0"/></radialGradient></defs><rect x="0.5" y="0.5" width="1199" height="523" rx="18" fill="#07090D" stroke="#232A3A"/><rect x="0.5" y="0.5" width="1199" height="523" rx="18" fill="url(#sglow)"/><g class="up" style="animation-delay:0.00s"><circle cx="34" cy="48" r="4" fill="#F5B759"/><text class="mono" x="48" y="52" font-size="12" fill="#F5B759" letter-spacing="1.8">AGENTS &amp; ORCHESTRATION</text></g><g class="chip" style="animation-delay:0.250s"><rect x="270" y="34" width="89" height="28" rx="8" fill="#0E1118" stroke="#232A3A"/><rect x="270" y="34" width="3" height="28" rx="1.5" fill="#F5B759" fill-opacity=".8"/><text class="sans" x="316" y="53" text-anchor="middle" font-size="13" fill="#ECE8E1">LangGraph</text></g><g class="chip" style="animation-delay:0.285s"><rect x="367" y="34" width="89" height="28" rx="8" fill="#0E1118" stroke="#232A3A"/><rect x="367" y="34" width="3" height="28" rx="1.5" fill="#F5B759" fill-opacity=".8"/><text class="sans" x="413" y="53" text-anchor="middle" font-size="13" fill="#ECE8E1">LangChain</text></g><g class="chip" style="animation-delay:0.320s"><rect x="464" y="34" width="159" height="28" rx="8" fill="#0E1118" stroke="#232A3A"/><rect x="464" y="34" width="3" height="28" rx="1.5" fill="#F5B759" fill-opacity=".8"/><text class="sans" x="545" y="53" text-anchor="middle" font-size="13" fill="#ECE8E1">Multi-Agent Systems</text></g><g class="chip" style="animation-delay:0.355s"><rect x="632" y="34" width="187" height="28" rx="8" fill="#0E1118" stroke="#232A3A"/><rect x="632" y="34" width="3" height="28" rx="1.5" fill="#F5B759" fill-opacity=".8"/><text class="sans" x="726" y="53" text-anchor="middle" font-size="13" fill="#ECE8E1">Tool / Function Calling</text></g><g class="chip" style="animation-delay:0.390s"><rect x="827" y="34" width="47" height="28" rx="8" fill="#0E1118" stroke="#232A3A"/><rect x="827" y="34" width="3" height="28" rx="1.5" fill="#F5B759" fill-opacity=".8"/><text class="sans" x="852" y="53" text-anchor="middle" font-size="13" fill="#ECE8E1">MCP</text></g><g class="chip" style="animation-delay:0.425s"><rect x="882" y="34" width="103" height="28" rx="8" fill="#0E1118" stroke="#232A3A"/><rect x="882" y="34" width="3" height="28" rx="1.5" fill="#F5B759" fill-opacity=".8"/><text class="sans" x="935" y="53" text-anchor="middle" font-size="13" fill="#ECE8E1">Browser Use</text></g><g class="chip" style="animation-delay:0.460s"><rect x="993" y="34" width="145" height="28" rx="8" fill="#0E1118" stroke="#232A3A"/><rect x="993" y="34" width="3" height="28" rx="1.5" fill="#F5B759" fill-opacity=".8"/><text class="sans" x="1067" y="53" text-anchor="middle" font-size="13" fill="#ECE8E1">Playwright agents</text></g><g class="chip" style="animation-delay:0.495s"><rect x="270" y="72" width="145" height="28" rx="8" fill="#0E1118" stroke="#232A3A"/><rect x="270" y="72" width="3" height="28" rx="1.5" fill="#F5B759" fill-opacity=".8"/><text class="sans" x="344" y="91" text-anchor="middle" font-size="13" fill="#ECE8E1">Human-in-the-Loop</text></g><g class="chip" style="animation-delay:0.530s"><rect x="423" y="72" width="110" height="28" rx="8" fill="#0E1118" stroke="#232A3A"/><rect x="423" y="72" width="3" height="28" rx="1.5" fill="#F5B759" fill-opacity=".8"/><text class="sans" x="479" y="91" text-anchor="middle" font-size="13" fill="#ECE8E1">Agent Memory</text></g><line x1="24" y1="118" x2="1176" y2="118" stroke="#232A3A" stroke-dasharray="2 6"/><g class="up" style="animation-delay:0.12s"><circle cx="34" cy="140" r="4" fill="#A78BFA"/><text class="mono" x="48" y="144" font-size="12" fill="#A78BFA" letter-spacing="1.8">LLM ENGINEERING</text></g><g class="chip" style="animation-delay:0.565s"><rect x="270" y="126" width="173" height="28" rx="8" fill="#0E1118" stroke="#232A3A"/><rect x="270" y="126" width="3" height="28" rx="1.5" fill="#A78BFA" fill-opacity=".8"/><text class="sans" x="358" y="145" text-anchor="middle" font-size="13" fill="#ECE8E1">Prompt &amp; Context Eng.</text></g><g class="chip" style="animation-delay:0.600s"><rect x="451" y="126" width="152" height="28" rx="8" fill="#0E1118" stroke="#232A3A"/><rect x="451" y="126" width="3" height="28" rx="1.5" fill="#A78BFA" fill-opacity=".8"/><text class="sans" x="529" y="145" text-anchor="middle" font-size="13" fill="#ECE8E1">Structured Outputs</text></g><g class="chip" style="animation-delay:0.635s"><rect x="612" y="126" width="145" height="28" rx="8" fill="#0E1118" stroke="#232A3A"/><rect x="612" y="126" width="3" height="28" rx="1.5" fill="#A78BFA" fill-opacity=".8"/><text class="sans" x="685" y="145" text-anchor="middle" font-size="13" fill="#ECE8E1">Multi-LLM Routing</text></g><g class="chip" style="animation-delay:0.670s"><rect x="765" y="126" width="131" height="28" rx="8" fill="#0E1118" stroke="#232A3A"/><rect x="765" y="126" width="3" height="28" rx="1.5" fill="#A78BFA" fill-opacity=".8"/><text class="sans" x="832" y="145" text-anchor="middle" font-size="13" fill="#ECE8E1">Token Streaming</text></g><g class="chip" style="animation-delay:0.705s"><rect x="904" y="126" width="131" height="28" rx="8" fill="#0E1118" stroke="#232A3A"/><rect x="904" y="126" width="3" height="28" rx="1.5" fill="#A78BFA" fill-opacity=".8"/><text class="sans" x="971" y="145" text-anchor="middle" font-size="13" fill="#ECE8E1">LangSmith Evals</text></g><g class="chip" style="animation-delay:0.740s"><rect x="270" y="164" width="173" height="28" rx="8" fill="#0E1118" stroke="#232A3A"/><rect x="270" y="164" width="3" height="28" rx="1.5" fill="#A78BFA" fill-opacity=".8"/><text class="sans" x="358" y="183" text-anchor="middle" font-size="13" fill="#ECE8E1">Cost / Latency Tuning</text></g><line x1="24" y1="210" x2="1176" y2="210" stroke="#232A3A" stroke-dasharray="2 6"/><g class="up" style="animation-delay:0.24s"><circle cx="34" cy="232" r="4" fill="#5EEAD4"/><text class="mono" x="48" y="236" font-size="12" fill="#5EEAD4" letter-spacing="1.8">RAG &amp; RETRIEVAL</text></g><g class="chip" style="animation-delay:0.775s"><rect x="270" y="218" width="124" height="28" rx="8" fill="#0E1118" stroke="#232A3A"/><rect x="270" y="218" width="3" height="28" rx="1.5" fill="#5EEAD4" fill-opacity=".8"/><text class="sans" x="333" y="237" text-anchor="middle" font-size="13" fill="#ECE8E1">Production RAG</text></g><g class="chip" style="animation-delay:0.810s"><rect x="402" y="218" width="89" height="28" rx="8" fill="#0E1118" stroke="#232A3A"/><rect x="402" y="218" width="3" height="28" rx="1.5" fill="#5EEAD4" fill-opacity=".8"/><text class="sans" x="448" y="237" text-anchor="middle" font-size="13" fill="#ECE8E1">Graph-RAG</text></g><g class="chip" style="animation-delay:0.845s"><rect x="499" y="218" width="82" height="28" rx="8" fill="#0E1118" stroke="#232A3A"/><rect x="499" y="218" width="3" height="28" rx="1.5" fill="#5EEAD4" fill-opacity=".8"/><text class="sans" x="542" y="237" text-anchor="middle" font-size="13" fill="#ECE8E1">LightRAG</text></g><g class="chip" style="animation-delay:0.880s"><rect x="590" y="218" width="61" height="28" rx="8" fill="#0E1118" stroke="#232A3A"/><rect x="590" y="218" width="3" height="28" rx="1.5" fill="#5EEAD4" fill-opacity=".8"/><text class="sans" x="621" y="237" text-anchor="middle" font-size="13" fill="#ECE8E1">Neo4j</text></g><g class="chip" style="animation-delay:0.915s"><rect x="659" y="218" width="159" height="28" rx="8" fill="#0E1118" stroke="#232A3A"/><rect x="659" y="218" width="3" height="28" rx="1.5" fill="#5EEAD4" fill-opacity=".8"/><text class="sans" x="739" y="237" text-anchor="middle" font-size="13" fill="#ECE8E1">Hybrid BM25 + Dense</text></g><g class="chip" style="animation-delay:0.950s"><rect x="826" y="218" width="47" height="28" rx="8" fill="#0E1118" stroke="#232A3A"/><rect x="826" y="218" width="3" height="28" rx="1.5" fill="#5EEAD4" fill-opacity=".8"/><text class="sans" x="851" y="237" text-anchor="middle" font-size="13" fill="#ECE8E1">RRF</text></g><g class="chip" style="animation-delay:0.985s"><rect x="881" y="218" width="89" height="28" rx="8" fill="#0E1118" stroke="#232A3A"/><rect x="881" y="218" width="3" height="28" rx="1.5" fill="#5EEAD4" fill-opacity=".8"/><text class="sans" x="927" y="237" text-anchor="middle" font-size="13" fill="#ECE8E1">Reranking</text></g><g class="chip" style="animation-delay:1.020s"><rect x="978" y="218" width="61" height="28" rx="8" fill="#0E1118" stroke="#232A3A"/><rect x="978" y="218" width="3" height="28" rx="1.5" fill="#5EEAD4" fill-opacity=".8"/><text class="sans" x="1010" y="237" text-anchor="middle" font-size="13" fill="#ECE8E1">FAISS</text></g><g class="chip" style="animation-delay:1.055s"><rect x="270" y="256" width="131" height="28" rx="8" fill="#0E1118" stroke="#232A3A"/><rect x="270" y="256" width="3" height="28" rx="1.5" fill="#5EEAD4" fill-opacity=".8"/><text class="sans" x="337" y="275" text-anchor="middle" font-size="13" fill="#ECE8E1">Jina Embeddings</text></g><line x1="24" y1="302" x2="1176" y2="302" stroke="#232A3A" stroke-dasharray="2 6"/><g class="up" style="animation-delay:0.36s"><circle cx="34" cy="324" r="4" fill="#7EE787"/><text class="mono" x="48" y="328" font-size="12" fill="#7EE787" letter-spacing="1.8">MODELS &amp; APIS</text></g><g class="chip" style="animation-delay:1.090s"><rect x="270" y="310" width="68" height="28" rx="8" fill="#0E1118" stroke="#232A3A"/><rect x="270" y="310" width="3" height="28" rx="1.5" fill="#7EE787" fill-opacity=".8"/><text class="sans" x="305" y="329" text-anchor="middle" font-size="13" fill="#ECE8E1">OpenAI</text></g><g class="chip" style="animation-delay:1.125s"><rect x="346" y="310" width="138" height="28" rx="8" fill="#0E1118" stroke="#232A3A"/><rect x="346" y="310" width="3" height="28" rx="1.5" fill="#7EE787" fill-opacity=".8"/><text class="sans" x="416" y="329" text-anchor="middle" font-size="13" fill="#ECE8E1">Anthropic Claude</text></g><g class="chip" style="animation-delay:1.160s"><rect x="492" y="310" width="68" height="28" rx="8" fill="#0E1118" stroke="#232A3A"/><rect x="492" y="310" width="3" height="28" rx="1.5" fill="#7EE787" fill-opacity=".8"/><text class="sans" x="528" y="329" text-anchor="middle" font-size="13" fill="#ECE8E1">Gemini</text></g><g class="chip" style="animation-delay:1.195s"><rect x="569" y="310" width="96" height="28" rx="8" fill="#0E1118" stroke="#232A3A"/><rect x="569" y="310" width="3" height="28" rx="1.5" fill="#7EE787" fill-opacity=".8"/><text class="sans" x="618" y="329" text-anchor="middle" font-size="13" fill="#ECE8E1">OpenRouter</text></g><g class="chip" style="animation-delay:1.230s"><rect x="673" y="310" width="54" height="28" rx="8" fill="#0E1118" stroke="#232A3A"/><rect x="673" y="310" width="3" height="28" rx="1.5" fill="#7EE787" fill-opacity=".8"/><text class="sans" x="701" y="329" text-anchor="middle" font-size="13" fill="#ECE8E1">Groq</text></g><g class="chip" style="animation-delay:1.265s"><rect x="735" y="310" width="75" height="28" rx="8" fill="#0E1118" stroke="#232A3A"/><rect x="735" y="310" width="3" height="28" rx="1.5" fill="#7EE787" fill-opacity=".8"/><text class="sans" x="773" y="329" text-anchor="middle" font-size="13" fill="#ECE8E1">Mistral</text></g><g class="chip" style="animation-delay:1.300s"><rect x="818" y="310" width="68" height="28" rx="8" fill="#0E1118" stroke="#232A3A"/><rect x="818" y="310" width="3" height="28" rx="1.5" fill="#7EE787" fill-opacity=".8"/><text class="sans" x="853" y="329" text-anchor="middle" font-size="13" fill="#ECE8E1">Ollama</text></g><g class="chip" style="animation-delay:1.335s"><rect x="894" y="310" width="110" height="28" rx="8" fill="#0E1118" stroke="#232A3A"/><rect x="894" y="310" width="3" height="28" rx="1.5" fill="#7EE787" fill-opacity=".8"/><text class="sans" x="950" y="329" text-anchor="middle" font-size="13" fill="#ECE8E1">Hugging Face</text></g><g class="chip" style="animation-delay:1.370s"><rect x="1012" y="310" width="75" height="28" rx="8" fill="#0E1118" stroke="#232A3A"/><rect x="1012" y="310" width="3" height="28" rx="1.5" fill="#7EE787" fill-opacity=".8"/><text class="sans" x="1051" y="329" text-anchor="middle" font-size="13" fill="#ECE8E1">Whisper</text></g><line x1="24" y1="356" x2="1176" y2="356" stroke="#232A3A" stroke-dasharray="2 6"/><g class="up" style="animation-delay:0.48s"><circle cx="34" cy="378" r="4" fill="#FF7A45"/><text class="mono" x="48" y="382" font-size="12" fill="#FF7A45" letter-spacing="1.8">DOCUMENT INTELLIGENCE</text></g><g class="chip" style="animation-delay:1.405s"><rect x="270" y="364" width="89" height="28" rx="8" fill="#0E1118" stroke="#232A3A"/><rect x="270" y="364" width="3" height="28" rx="1.5" fill="#FF7A45" fill-opacity=".8"/><text class="sans" x="316" y="383" text-anchor="middle" font-size="13" fill="#ECE8E1">Azure OCR</text></g><g class="chip" style="animation-delay:1.440s"><rect x="367" y="364" width="75" height="28" rx="8" fill="#0E1118" stroke="#232A3A"/><rect x="367" y="364" width="3" height="28" rx="1.5" fill="#FF7A45" fill-opacity=".8"/><text class="sans" x="406" y="383" text-anchor="middle" font-size="13" fill="#ECE8E1">Docling</text></g><g class="chip" style="animation-delay:1.475s"><rect x="450" y="364" width="110" height="28" rx="8" fill="#0E1118" stroke="#232A3A"/><rect x="450" y="364" width="3" height="28" rx="1.5" fill="#FF7A45" fill-opacity=".8"/><text class="sans" x="506" y="383" text-anchor="middle" font-size="13" fill="#ECE8E1">PP-DocLayout</text></g><g class="chip" style="animation-delay:1.510s"><rect x="569" y="364" width="68" height="28" rx="8" fill="#0E1118" stroke="#232A3A"/><rect x="569" y="364" width="3" height="28" rx="1.5" fill="#FF7A45" fill-opacity=".8"/><text class="sans" x="604" y="383" text-anchor="middle" font-size="13" fill="#ECE8E1">OpenCV</text></g><g class="chip" style="animation-delay:1.545s"><rect x="645" y="364" width="173" height="28" rx="8" fill="#0E1118" stroke="#232A3A"/><rect x="645" y="364" width="3" height="28" rx="1.5" fill="#FF7A45" fill-opacity=".8"/><text class="sans" x="732" y="383" text-anchor="middle" font-size="13" fill="#ECE8E1">Multimodal Extraction</text></g><g class="chip" style="animation-delay:1.580s"><rect x="826" y="364" width="152" height="28" rx="8" fill="#0E1118" stroke="#232A3A"/><rect x="826" y="364" width="3" height="28" rx="1.5" fill="#FF7A45" fill-opacity=".8"/><text class="sans" x="903" y="383" text-anchor="middle" font-size="13" fill="#ECE8E1">Coordinate Mapping</text></g><line x1="24" y1="410" x2="1176" y2="410" stroke="#232A3A" stroke-dasharray="2 6"/><g class="up" style="animation-delay:0.60s"><circle cx="34" cy="432" r="4" fill="#ECE8E1"/><text class="mono" x="48" y="436" font-size="12" fill="#ECE8E1" letter-spacing="1.8">BACKEND &amp; SHIPPING</text></g><g class="chip" style="animation-delay:1.615s"><rect x="270" y="418" width="68" height="28" rx="8" fill="#0E1118" stroke="#232A3A"/><rect x="270" y="418" width="3" height="28" rx="1.5" fill="#ECE8E1" fill-opacity=".8"/><text class="sans" x="305" y="437" text-anchor="middle" font-size="13" fill="#ECE8E1">Python</text></g><g class="chip" style="animation-delay:1.650s"><rect x="346" y="418" width="75" height="28" rx="8" fill="#0E1118" stroke="#232A3A"/><rect x="346" y="418" width="3" height="28" rx="1.5" fill="#ECE8E1" fill-opacity=".8"/><text class="sans" x="385" y="437" text-anchor="middle" font-size="13" fill="#ECE8E1">FastAPI</text></g><g class="chip" style="animation-delay:1.685s"><rect x="429" y="418" width="61" height="28" rx="8" fill="#0E1118" stroke="#232A3A"/><rect x="429" y="418" width="3" height="28" rx="1.5" fill="#ECE8E1" fill-opacity=".8"/><text class="sans" x="461" y="437" text-anchor="middle" font-size="13" fill="#ECE8E1">Flask</text></g><g class="chip" style="animation-delay:1.720s"><rect x="498" y="418" width="96" height="28" rx="8" fill="#0E1118" stroke="#232A3A"/><rect x="498" y="418" width="3" height="28" rx="1.5" fill="#ECE8E1" fill-opacity=".8"/><text class="sans" x="547" y="437" text-anchor="middle" font-size="13" fill="#ECE8E1">WebSockets</text></g><g class="chip" style="animation-delay:1.755s"><rect x="603" y="418" width="96" height="28" rx="8" fill="#0E1118" stroke="#232A3A"/><rect x="603" y="418" width="3" height="28" rx="1.5" fill="#ECE8E1" fill-opacity=".8"/><text class="sans" x="652" y="437" text-anchor="middle" font-size="13" fill="#ECE8E1">PostgreSQL</text></g><g class="chip" style="animation-delay:1.790s"><rect x="707" y="418" width="68" height="28" rx="8" fill="#0E1118" stroke="#232A3A"/><rect x="707" y="418" width="3" height="28" rx="1.5" fill="#ECE8E1" fill-opacity=".8"/><text class="sans" x="742" y="437" text-anchor="middle" font-size="13" fill="#ECE8E1">SQLite</text></g><g class="chip" style="animation-delay:1.825s"><rect x="783" y="418" width="68" height="28" rx="8" fill="#0E1118" stroke="#232A3A"/><rect x="783" y="418" width="3" height="28" rx="1.5" fill="#ECE8E1" fill-opacity=".8"/><text class="sans" x="818" y="437" text-anchor="middle" font-size="13" fill="#ECE8E1">Docker</text></g><g class="chip" style="animation-delay:1.860s"><rect x="859" y="418" width="47" height="28" rx="8" fill="#0E1118" stroke="#232A3A"/><rect x="859" y="418" width="3" height="28" rx="1.5" fill="#ECE8E1" fill-opacity=".8"/><text class="sans" x="884" y="437" text-anchor="middle" font-size="13" fill="#ECE8E1">Git</text></g><g class="chip" style="animation-delay:1.895s"><rect x="914" y="418" width="82" height="28" rx="8" fill="#0E1118" stroke="#232A3A"/><rect x="914" y="418" width="3" height="28" rx="1.5" fill="#ECE8E1" fill-opacity=".8"/><text class="sans" x="956" y="437" text-anchor="middle" font-size="13" fill="#ECE8E1">Selenium</text></g><g class="chip" style="animation-delay:1.930s"><rect x="1004" y="418" width="89" height="28" rx="8" fill="#0E1118" stroke="#232A3A"/><rect x="1004" y="418" width="3" height="28" rx="1.5" fill="#ECE8E1" fill-opacity=".8"/><text class="sans" x="1050" y="437" text-anchor="middle" font-size="13" fill="#ECE8E1">Streamlit</text></g><g class="chip" style="animation-delay:1.965s"><rect x="1101" y="418" width="47" height="28" rx="8" fill="#0E1118" stroke="#232A3A"/><rect x="1101" y="418" width="3" height="28" rx="1.5" fill="#ECE8E1" fill-opacity=".8"/><text class="sans" x="1126" y="437" text-anchor="middle" font-size="13" fill="#ECE8E1">GCP</text></g><g class="chip" style="animation-delay:2.000s"><rect x="270" y="456" width="68" height="28" rx="8" fill="#0E1118" stroke="#232A3A"/><rect x="270" y="456" width="3" height="28" rx="1.5" fill="#ECE8E1" fill-opacity=".8"/><text class="sans" x="305" y="475" text-anchor="middle" font-size="13" fill="#ECE8E1">Render</text></g><g class="chip" style="animation-delay:2.035s"><rect x="346" y="456" width="68" height="28" rx="8" fill="#0E1118" stroke="#232A3A"/><rect x="346" y="456" width="3" height="28" rx="1.5" fill="#ECE8E1" fill-opacity=".8"/><text class="sans" x="381" y="475" text-anchor="middle" font-size="13" fill="#ECE8E1">Vercel</text></g></svg>